<?xml version="1.0" encoding="UTF-8"?><svg xmlns="http://www.w3.org/2000/svg" xmlns:xlink="http://www.w3.org/1999/xlink" width="375pt" zoomAndPan="magnify" viewBox="0 0 375 374.999991" height="374.999991pt" preserveAspectRatio="xMidYMid meet" version="1.2"><defs><g/><clipPath xml:id="clip1" id="clip1"><path d="M 41 216 L 244 216 L 244 301 L 41 301 Z M 41 216 "/></clipPath><clipPath xml:id="clip2" id="clip2"><path d="M 52.519531 195.679688 L 321.523438 226.375 L 306.476562 358.269531 L 37.472656 327.574219 Z M 52.519531 195.679688 "/></clipPath><clipPath xml:id="clip3" id="clip3"><path d="M 52.519531 195.679688 L 321.523438 226.375 L 306.476562 358.269531 L 37.472656 327.574219 Z M 52.519531 195.679688 "/></clipPath><clipPath xml:id="clip4" id="clip4"><path d="M 53 226 L 314 226 L 314 328 L 53 328 Z M 53 226 "/></clipPath><clipPath xml:id="clip5" id="clip5"><path d="M 52.519531 195.679688 L 321.523438 226.375 L 306.476562 358.269531 L 37.472656 327.574219 Z M 52.519531 195.679688 "/></clipPath><clipPath xml:id="clip6" id="clip6"><path d="M 52.519531 195.679688 L 321.523438 226.375 L 306.476562 358.269531 L 37.472656 327.574219 Z M 52.519531 195.679688 "/></clipPath><clipPath xml:id="clip7" id="clip7"><path d="M 73 304 L 272 304 L 272 347 L 73 347 Z M 73 304 "/></clipPath><clipPath xml:id="clip8" id="clip8"><path d="M 52.519531 195.679688 L 321.523438 226.375 L 306.476562 358.269531 L 37.472656 327.574219 Z M 52.519531 195.679688 "/></clipPath><clipPath xml:id="clip9" id="clip9"><path d="M 52.519531 195.679688 L 321.523438 226.375 L 306.476562 358.269531 L 37.472656 327.574219 Z M 52.519531 195.679688 "/></clipPath></defs><g xml:id="surface1" id="surface1"><g style="fill:rgb(0%,76.078796%,79.60968%);fill-opacity:1;"><g transform="translate(43.04297, 237.85598)"><path style="stroke:none;" d="M 77.859375 -46.34375 C 72.054688 -46.53125 66.113281 -46.863281 60.03125 -47.34375 C 47.382812 -2.5625 39.445312 19.828125 36.21875 19.828125 L 24.234375 19.828125 C 15.773438 18.015625 11.546875 14.96875 11.546875 10.6875 C 11.546875 8.976562 11.3125 6.84375 10.84375 4.28125 C 10.84375 -8.84375 22.15625 -59.847656 44.78125 -148.734375 C 46.96875 -155.285156 50.957031 -158.5625 56.75 -158.5625 L 62.3125 -158.5625 C 76 -158.375 82.84375 -157.472656 82.84375 -155.859375 C 74.863281 -127.054688 70.585938 -108.945312 70.015625 -101.53125 C 66.691406 -91.644531 64.550781 -80.378906 63.59375 -67.734375 L 64.3125 -67.734375 C 97.96875 -68.878906 119.453125 -74.726562 128.765625 -85.28125 C 138.078125 -95.832031 142.734375 -108.285156 142.734375 -122.640625 C 142.734375 -148.492188 128.859375 -166.835938 101.109375 -177.671875 C 91.023438 -181.859375 80.234375 -183.953125 68.734375 -183.953125 C 50.671875 -183.953125 30.46875 -181.625 8.125 -176.96875 C 4.320312 -177.25 2.421875 -177.960938 2.421875 -179.109375 C 10.503906 -187.378906 19.914062 -192.554688 30.65625 -194.640625 C 54.332031 -199.773438 74.296875 -202.34375 90.546875 -202.34375 C 117.929688 -202.34375 143.316406 -189.890625 166.703125 -164.984375 C 179.441406 -149.773438 185.8125 -133.992188 185.8125 -117.640625 C 185.8125 -86.460938 173.210938 -66.265625 148.015625 -57.046875 C 136.609375 -52.859375 124.394531 -49.863281 111.375 -48.0625 C 113.84375 -41.3125 117.070312 -32.894531 121.0625 -22.8125 C 123.25 -10.164062 129.097656 6.328125 138.609375 26.671875 L 137.75 27.8125 L 136.609375 28.515625 C 129.191406 33.171875 121.441406 31.53125 113.359375 23.59375 C 105.285156 15.65625 98.441406 4.414062 92.828125 -10.125 L 90.546875 -13.828125 C 88.742188 -16.679688 86.273438 -23.523438 83.140625 -34.359375 C 81.898438 -38.828125 80.425781 -42.347656 78.71875 -44.921875 Z M 77.859375 -46.34375 "/></g></g><g style="fill:rgb(0%,76.078796%,79.60968%);fill-opacity:1;"><g transform="translate(226.000568, 237.85598)"><path style="stroke:none;" d="M 57.1875 -141.75 C 67.832031 -141.75 79.425781 -132.664062 91.96875 -114.5 C 91.96875 -112.789062 92.492188 -110.554688 93.546875 -107.796875 C 90.597656 -94.679688 79.046875 -81.46875 58.890625 -68.15625 C 53.953125 -67.019531 50.34375 -66.453125 48.0625 -66.453125 L 47.34375 -66.453125 C 46.488281 -66.453125 45.632812 -67.304688 44.78125 -69.015625 C 44.78125 -72.242188 50.578125 -82.988281 62.171875 -101.25 C 64.359375 -106.757812 65.453125 -111.414062 65.453125 -115.21875 L 65.453125 -116.078125 C 65.453125 -123.585938 61.316406 -128.816406 53.046875 -131.765625 C 44.015625 -129.484375 38.5 -111.5625 36.5 -78 C 36.5 -54.894531 42.867188 -43.34375 55.609375 -43.34375 L 57.1875 -43.34375 C 80.28125 -48.289062 93.78125 -50.765625 97.6875 -50.765625 L 98.53125 -50.765625 C 100.25 -50.765625 101.109375 -49.671875 101.109375 -47.484375 C 101.109375 -43.203125 91.171875 -35.738281 71.296875 -25.09375 C 65.492188 -21.769531 58.03125 -19.300781 48.90625 -17.6875 C 29.988281 -17.6875 16.207031 -29.804688 7.5625 -54.046875 C 5.945312 -60.984375 4.851562 -68.726562 4.28125 -77.28125 C 4.28125 -107.894531 16.972656 -128.570312 42.359375 -139.3125 C 47.960938 -140.9375 52.90625 -141.75 57.1875 -141.75 Z M 27.09375 -160.84375 C 39.164062 -179.007812 45.488281 -188.140625 46.0625 -188.234375 C 53.570312 -196.972656 59.703125 -201.675781 64.453125 -202.34375 C 72.910156 -203.488281 76.570312 -196.882812 75.4375 -182.53125 C 75.34375 -175.207031 76.195312 -168.835938 78 -163.421875 L 78.140625 -162.28125 C 77.859375 -160.5625 75.769531 -159.421875 71.875 -158.859375 L 69.296875 -158.5625 C 65.210938 -158.09375 62.929688 -160.945312 62.453125 -167.125 C 61.984375 -173.300781 60.414062 -179.097656 57.75 -184.515625 C 54.800781 -181.097656 51.285156 -172.210938 47.203125 -157.859375 C 44.628906 -155.285156 40.828125 -153.71875 35.796875 -153.15625 C 31.515625 -152.582031 28.613281 -155.144531 27.09375 -160.84375 Z M 27.09375 -160.84375 "/></g></g><g clip-rule="nonzero" clip-path="url(#clip1)"><g clip-rule="nonzero" clip-path="url(#clip2)"><g clip-rule="nonzero" clip-path="url(#clip3)"><path style=" stroke:none;fill-rule:nonzero;fill:rgb(100%,36.859131%,0%);fill-opacity:1;" d="M 45.5 297.253906 C 52.703125 284.609375 62.765625 274.539062 77.675781 272.734375 C 91.4375 271.066406 105.652344 275.753906 118.414062 280.367188 C 132.007812 285.28125 145.1875 291.367188 159.007812 295.636719 C 172.515625 299.8125 186.984375 301.164062 201.03125 299.519531 C 212.796875 298.140625 224.855469 293.867188 233.1875 285.113281 C 241.464844 276.417969 245.082031 264.363281 242.832031 252.585938 C 240.632812 241.070312 234.4375 229.707031 225.472656 222.136719 C 216.257812 214.355469 203.609375 214.1875 194.800781 222.691406 C 191.644531 225.734375 195.515625 230.898438 199.089844 228.109375 C 204.820312 223.640625 210.582031 221.996094 217.265625 225.363281 C 223.488281 228.5 227.992188 235.203125 231.058594 241.230469 C 237.886719 254.636719 238.265625 270.28125 226.804688 281.339844 C 215.824219 291.9375 198.714844 293.878906 184.203125 293.207031 C 170.464844 292.570312 157.808594 288.449219 145.078125 283.523438 C 126.375 276.289062 107.183594 267.183594 86.863281 266.035156 C 77.890625 265.527344 68.785156 267.023438 60.921875 271.539062 C 51.734375 276.820312 45.757812 285.515625 41.90625 295.222656 C 41.058594 297.363281 44.304688 299.351562 45.5 297.253906 "/></g></g></g><g clip-rule="nonzero" clip-path="url(#clip4)"><g clip-rule="nonzero" clip-path="url(#clip5)"><g clip-rule="nonzero" clip-path="url(#clip6)"><path style=" stroke:none;fill-rule:nonzero;fill:rgb(100%,36.859131%,0%);fill-opacity:1;" d="M 54.101562 301.296875 C 60.105469 296.164062 66.054688 292.6875 73.746094 290.808594 C 81.074219 289.015625 88.746094 289.476562 96.125 290.6875 C 112.722656 293.421875 128.179688 300.941406 143.355469 307.863281 C 157.910156 314.507812 171.9375 321.457031 187.6875 324.796875 C 209.59375 329.441406 232.871094 328.617188 254.296875 322.050781 C 270.910156 316.960938 285.75 308.648438 297.804688 295.988281 C 307.738281 285.558594 316.308594 271.003906 312.785156 256.066406 C 309.160156 240.726562 293.8125 229.695312 278.851562 227.359375 C 264.074219 225.054688 247.402344 231.84375 247.753906 248.910156 C 247.917969 256.871094 252.441406 264.867188 260.191406 267.554688 C 268.9375 270.585938 277.230469 264.984375 279.988281 256.613281 C 281.890625 250.835938 273.859375 245.457031 270.265625 251.128906 C 268.71875 253.570312 266.699219 255.148438 265.535156 255.125 C 264.753906 255.109375 264.222656 254.917969 263.390625 254.316406 C 262.363281 253.574219 261.820312 252.285156 261.273438 250.808594 C 260.8125 249.5625 260.925781 248.070312 261.007812 246.988281 C 261.003906 247.027344 261.519531 244.699219 261.195312 245.773438 C 261.195312 245.773438 262.113281 243.734375 261.523438 244.761719 C 262.84375 242.472656 264.011719 241.964844 267.027344 240.921875 C 271.394531 239.40625 278.441406 240.167969 283.101562 241.785156 C 288.472656 243.648438 295.285156 248.46875 298.65625 254.3125 C 305.660156 266.449219 297.320312 279.976562 289.023438 289.398438 C 277.484375 302.5 261.773438 310.71875 245.222656 315.566406 C 223.308594 321.984375 200.414062 321.441406 178.480469 315.492188 C 164.28125 311.636719 151.039062 303.808594 137.46875 298.253906 C 122.421875 292.097656 106.558594 286.308594 90.214844 285.164062 C 76.285156 284.183594 61.257812 288.09375 53.132812 300.355469 C 52.71875 300.980469 53.488281 301.820312 54.101562 301.296875 "/></g></g></g><g clip-rule="nonzero" clip-path="url(#clip7)"><g clip-rule="nonzero" clip-path="url(#clip8)"><g clip-rule="nonzero" clip-path="url(#clip9)"><path style=" stroke:none;fill-rule:nonzero;fill:rgb(100%,36.859131%,0%);fill-opacity:1;" d="M 76.132812 313.417969 C 80.148438 311.777344 83.855469 310.054688 88.175781 309.316406 C 92.492188 308.578125 96.878906 308.742188 101.207031 309.25 C 110.769531 310.371094 119.949219 313.957031 128.621094 318.007812 C 143.128906 324.78125 157.46875 331.953125 172.585938 337.300781 C 188.136719 342.800781 204.511719 346.621094 221.050781 346.976562 C 237.734375 347.335938 257.597656 343.859375 270.15625 331.875 C 273.050781 329.109375 269.679688 325.011719 266.351562 327.078125 C 258.828125 331.75 251.503906 335.859375 242.851562 338.058594 C 234.265625 340.246094 225.328125 340.71875 216.511719 340.25 C 200.238281 339.386719 184.25 335.101562 169.027344 329.453125 C 153.796875 323.800781 139.351562 316.289062 124.035156 310.863281 C 115.53125 307.851562 106.429688 305.4375 97.398438 304.914062 C 89.789062 304.46875 80.539062 305.640625 74.511719 310.730469 C 73.125 311.898438 74.457031 314.105469 76.132812 313.417969 "/></g></g></g></g></svg>